<?xml version="1.0" encoding="UTF-8" standalone="no"?>
<!DOCTYPE svg PUBLIC "-//W3C//DTD SVG 1.1//EN" "http://www.w3.org/Graphics/SVG/1.1/DTD/svg11.dtd">
<svg width="551.00" height="518.00" viewBox="0.00 0.00 551.00 518.00" xmlns="http://www.w3.org/2000/svg" xmlns:xlink="http://www.w3.org/1999/xlink">
<g stroke-linecap="round" id="Layer_1">
<path d="M148.67,46.00 C148.67,46.00 150.00,46.00 150.00,46.00" fill="none" stroke="rgb(255, 255, 255)" stroke-width="11.00" stroke-opacity="1.00" stroke-linejoin="round"/>
<path d="M150.00,46.00 L269.33,262.67" fill="none" stroke="rgb(255, 255, 255)" stroke-width="11.00" stroke-opacity="1.00" stroke-linejoin="round"/>
<path d="M269.33,262.67" fill="none" stroke="rgb(255, 255, 255)" stroke-width="11.00" stroke-opacity="1.00" stroke-linejoin="round"/>
<path d="M269.33,262.67 L141.33,496.00" fill="none" stroke="rgb(255, 255, 255)" stroke-width="11.00" stroke-opacity="1.00" stroke-linejoin="round"/>
<path d="M141.33,496.00 C141.33,496.00 141.33,496.67 141.33,496.67" fill="none" stroke="rgb(255, 255, 255)" stroke-width="11.00" stroke-opacity="1.00" stroke-linejoin="round"/>
<path d="M141.33,496.67 L408.00,494.67" fill="none" stroke="rgb(255, 255, 255)" stroke-width="11.00" stroke-opacity="1.00" stroke-linejoin="round"/>
<path d="M408.00,494.67" fill="none" stroke="rgb(255, 255, 255)" stroke-width="11.00" stroke-opacity="1.00" stroke-linejoin="round"/>
<path d="M408.00,494.67 L534.00,267.33" fill="none" stroke="rgb(255, 255, 255)" stroke-width="11.00" stroke-opacity="1.00" stroke-linejoin="round"/>
<path d="M534.00,267.33 C534.00,267.33 534.00,268.00 534.00,268.00" fill="none" stroke="rgb(255, 255, 255)" stroke-width="11.00" stroke-opacity="1.00" stroke-linejoin="round"/>
<path d="M534.00,268.00 L406.00,42.00" fill="none" stroke="rgb(255, 255, 255)" stroke-width="11.00" stroke-opacity="1.00" stroke-linejoin="round"/>
<path d="M406.00,42.00 C406.00,42.00 406.67,42.00 406.67,42.00" fill="none" stroke="rgb(255, 255, 255)" stroke-width="11.00" stroke-opacity="1.00" stroke-linejoin="round"/>
<path d="M406.67,42.00 L150.00,46.00" fill="none" stroke="rgb(255, 255, 255)" stroke-width="11.00" stroke-opacity="1.00" stroke-linejoin="round"/>
<path d="M150.00,46.00 C150.00,46.00 150.67,46.67 150.67,46.67" fill="none" stroke="rgb(255, 255, 255)" stroke-width="11.00" stroke-opacity="1.00" stroke-linejoin="round"/>
<path d="M106.67,118.00" fill="none" stroke="rgb(255, 255, 255)" stroke-width="11.00" stroke-opacity="1.00" stroke-linejoin="round"/>
<path d="M106.67,118.00 L20.00,270.00" fill="none" stroke="rgb(255, 255, 255)" stroke-width="11.00" stroke-opacity="1.00" stroke-linejoin="round"/>
<path d="M20.00,270.00" fill="none" stroke="rgb(255, 255, 255)" stroke-width="11.00" stroke-opacity="1.00" stroke-linejoin="round"/>
<path d="M20.00,270.00 L109.33,420.67" fill="none" stroke="rgb(255, 255, 255)" stroke-width="11.00" stroke-opacity="1.00" stroke-linejoin="round"/>
<path d="M109.33,420.67 C109.33,420.67 109.33,421.33 109.33,421.33" fill="none" stroke="rgb(255, 255, 255)" stroke-width="11.00" stroke-opacity="1.00" stroke-linejoin="round"/>
<path d="M109.33,421.33 L108.00,118.00" fill="none" stroke="rgb(255, 255, 255)" stroke-width="11.00" stroke-opacity="1.00" stroke-linejoin="round"/>
<path d="M108.00,118.00 C108.00,118.00 107.33,118.67 107.33,118.67 C107.33,118.67 108.00,118.67 108.00,118.67" fill="none" stroke="rgb(255, 255, 255)" stroke-width="11.00" stroke-opacity="1.00" stroke-linejoin="round"/>
<path d="M161.00,50.00 C161.06,49.55 161.06,49.23 161.00,49.05 C160.94,48.86 160.73,48.54 160.38,48.09 C160.38,48.09 160.06,48.28 160.06,48.28 C162.97,61.04 165.31,68.81 166.39,70.50 C166.83,71.17 167.21,71.65 167.56,71.94 C167.68,72.05 167.82,72.06 167.97,72.00" fill="none" stroke="rgb(255, 255, 255)" stroke-width="11.00" stroke-opacity="1.00" stroke-linejoin="round"/>
<path d="M165.00,54.00 C165.00,53.38 165.00,52.76 165.00,52.14 C165.00,51.26 165.00,50.38 165.00,49.50 C168.60,55.90 175.02,79.51 176.17,83.89 C176.44,84.93 176.72,85.96 177.00,87.00" fill="none" stroke="rgb(255, 255, 255)" stroke-width="11.00" stroke-opacity="1.00" stroke-linejoin="round"/>
<path d="M174.00,60.50 C174.00,60.50 169.39,51.06 169.39,51.06 C169.07,54.37 170.66,63.09 171.31,66.02 C172.36,70.71 174.00,75.30 175.94,79.89 C169.51,69.03 164.76,52.33 165.22,52.17 C170.71,60.69 173.54,65.95 177.43,75.79 C179.73,81.59 181.93,86.76 182.94,88.67 C182.94,88.67 174.28,74.17 174.28,74.17 C178.50,80.26 186.64,92.20 191.31,100.26 C193.10,103.35 195.83,107.60 196.33,108.28 C196.46,108.45 196.65,108.67 196.89,108.94" fill="none" stroke="rgb(255, 255, 255)" stroke-width="11.00" stroke-opacity="1.00" stroke-linejoin="round"/>
<path d="M176.67,58.33 C176.71,57.16 176.64,56.47 176.32,55.23 C176.09,54.31 176.02,53.23 175.93,52.92 C175.86,52.72 175.67,52.27 175.33,51.56 C175.33,51.56 187.30,86.33 187.30,86.33 C182.88,69.98 181.35,53.85 181.33,53.59 C182.57,51.68 196.72,96.49 200.56,105.67 C200.56,105.67 188.48,78.22 188.48,78.22 C188.48,78.22 208.33,125.15 208.33,125.15 C208.33,125.15 182.41,79.74 182.41,79.74 C183.54,84.58 188.08,95.88 193.09,106.34 C196.73,113.47 201.82,123.44 203.85,126.74 C203.85,126.74 182.30,84.89 182.30,84.89 C185.62,91.78 192.84,106.26 196.54,113.09 C200.13,119.47 213.71,142.08 215.19,144.67 C215.19,144.68 208.05,126.84 204.91,118.78 C201.21,108.89 199.35,102.99 197.89,97.52 C199.36,98.67 214.70,135.84 221.13,151.38 C224.06,158.02 227.80,166.48 228.48,167.85 C223.70,155.07 213.67,128.60 209.06,113.01 C208.43,110.90 208.21,109.84 208.00,108.11 C213.01,115.58 232.48,168.83 235.74,177.93 C234.13,175.46 225.54,159.29 222.12,152.31 C214.26,135.26 209.06,122.68 208.04,120.52 C208.03,122.55 226.23,164.88 228.79,170.95 C230.17,174.45 231.96,178.99 232.37,180.04 C220.05,154.99 208.43,125.58 208.04,124.59 C208.04,124.59 235.15,182.26 235.15,182.26 C235.15,182.26 204.48,117.70 204.48,117.70 C207.03,126.53 209.27,132.58 214.10,144.12 C219.48,156.35 226.25,171.75 227.63,174.93 C227.63,174.93 197.52,115.70 197.52,115.70 C198.58,119.84 204.81,134.43 208.53,141.43 C213.19,149.92 230.76,179.29 231.85,180.30 C231.85,180.30 214.56,133.89 214.56,133.89 C214.56,133.89 245.89,202.93 245.89,202.93 C245.89,202.93 228.89,161.11 228.89,161.11 C228.94,161.42 251.55,213.30 252.83,215.67 C253.02,216.02 253.32,216.57 253.74,217.30 C253.74,217.30 236.00,168.19 236.00,168.19 C238.99,173.63 257.78,217.91 260.61,222.80 C260.96,223.41 261.32,224.02 261.67,224.63 C261.67,224.63 244.67,180.33 244.67,180.33 C244.67,180.33 275.07,244.48 275.07,244.48 C275.07,244.48 257.37,209.00 257.37,209.00 C257.37,209.00 277.11,250.48 277.11,250.48 C277.11,250.48 260.30,217.89 260.30,217.89 C265.12,223.11 274.80,248.80 274.52,248.74 C274.52,248.74 250.59,208.59 250.59,208.59 C250.59,208.59 275.89,255.70 275.89,255.70 C275.89,255.70 258.59,222.19 258.59,222.19 C258.59,222.19 275.22,254.59 275.22,254.59 C275.22,254.59 275.33,253.52 275.33,253.52" fill="none" stroke="rgb(255, 255, 255)" stroke-width="11.00" stroke-opacity="1.00" stroke-linejoin="round"/>
<path d="M153.00,487.00 C153.00,487.00 153.00,487.71 153.00,487.71 C153.00,487.71 152.15,488.00 152.15,488.00 C154.10,486.69 157.81,481.92 159.61,479.28 C162.46,475.07 210.80,389.77 217.90,375.52 C224.98,361.85 241.35,332.44 244.08,327.30 C251.01,314.01 263.25,290.93 270.92,278.94 C274.45,273.15 279.34,264.30 279.44,264.11 C279.58,263.86 279.76,263.49 280.00,263.00" fill="none" stroke="rgb(255, 255, 255)" stroke-width="11.00" stroke-opacity="1.00" stroke-linejoin="round"/>
<path d="M360.67,285.71 C361.10,282.99 360.57,269.11 357.09,253.39 C355.16,245.20 351.46,232.47 349.70,227.88 C347.50,222.16 340.18,208.78 336.50,204.33 C334.13,201.51 330.42,198.19 328.50,197.11 C327.82,196.75 325.02,195.53 324.39,195.50 C322.67,195.45 320.54,196.25 319.78,197.26 C318.13,199.65 316.46,205.72 316.47,209.09 C316.51,212.70 317.14,217.85 317.90,220.86 C318.67,223.74 321.74,229.91 324.43,233.19 C326.66,235.85 331.80,239.55 334.72,240.06 C336.57,240.33 340.22,239.48 341.28,238.44 C343.42,236.21 344.96,229.85 344.89,227.31 C344.66,221.52 342.11,210.23 339.00,203.06 C336.21,196.68 329.42,184.94 325.15,180.39 C321.04,176.06 308.93,167.00 304.11,164.61 C300.50,162.85 294.50,161.09 291.72,160.89 C290.63,160.83 288.48,161.19 287.78,161.56 C287.04,161.98 285.67,163.61 285.22,164.67 C284.12,167.42 284.04,173.86 284.83,178.67 C286.08,186.00 290.73,198.16 294.73,205.06 C302.34,218.12 317.68,235.25 318.67,235.67 C317.62,232.03 308.72,214.89 304.35,207.03 C299.84,199.28 293.99,189.61 291.67,186.83 C291.67,186.83 307.56,230.50 307.56,230.50 C307.56,230.50 299.11,207.39 299.11,207.39 C301.43,216.82 304.42,226.92 307.61,234.83 C310.76,242.21 314.40,250.71 314.89,251.83 C309.81,242.90 305.46,222.82 305.06,219.78 C307.56,231.21 309.11,240.13 309.78,249.61 C310.26,258.13 311.04,273.09 310.61,273.39 C308.33,266.68 305.98,238.80 306.00,230.44 C305.19,239.28 304.10,247.27 302.12,258.19 C299.89,269.37 297.66,278.83 295.22,286.50 C295.22,286.50 307.61,242.33 307.61,242.33 C306.31,248.77 302.85,265.44 300.97,272.33 C298.87,279.98 289.61,305.96 288.78,308.44 C288.78,308.44 312.78,269.89 312.78,269.89 C311.24,274.40 305.87,286.17 302.12,293.35 C285.49,322.92 264.96,359.05 261.06,365.61 C261.06,365.61 283.89,316.56 283.89,316.56 C277.30,331.89 266.19,354.99 259.56,367.85 C251.31,383.17 237.80,405.32 229.39,418.74 C226.71,422.94 226.02,424.73 225.89,425.06 C225.65,425.66 224.32,429.70 224.28,429.72 C224.28,429.72 238.89,380.44 238.89,380.44 C236.77,386.54 230.83,399.52 227.31,406.85 C223.07,415.25 216.56,427.12 215.11,430.44 C215.11,430.44 231.94,398.61 231.94,398.61 C228.96,404.58 221.68,419.14 217.38,427.73 C211.66,439.01 206.78,447.36 205.44,450.17 C204.17,452.81 200.90,461.28 201.06,461.39 C202.11,461.00 214.76,459.78 220.83,459.11 C224.08,459.06 236.22,457.92 250.14,457.99 C253.69,457.99 259.27,457.99 259.78,458.11 C256.80,458.91 241.88,460.26 235.41,460.06 C231.83,459.94 223.22,458.56 221.78,458.39 C216.74,457.83 210.63,458.28 210.11,459.00 C210.53,459.05 217.72,458.15 221.57,458.10 C225.97,458.06 238.59,459.27 245.97,458.93 C248.46,458.81 251.69,458.05 252.94,457.72 C254.02,457.39 262.46,454.86 267.11,454.28 C280.74,452.64 299.30,455.60 299.78,456.00 C294.47,455.93 277.89,456.42 274.83,456.78 C271.15,457.22 266.09,458.68 265.50,459.56 C268.86,460.62 274.59,460.80 278.00,460.93 C281.86,461.09 291.62,462.00 293.17,461.94 C299.92,461.39 323.83,459.02 329.67,459.00 C336.93,458.99 355.56,459.01 367.33,461.11 C368.89,461.56 370.77,462.05 373.56,462.00 C376.66,461.93 382.53,460.88 386.00,460.00 C386.56,459.86 391.44,459.00 392.50,457.89 C393.39,456.93 394.62,451.74 395.24,449.60 C396.18,445.16 405.82,426.99 407.94,422.62 C414.47,409.08 426.12,390.60 426.00,392.00 C426.61,391.46 439.61,369.18 439.61,369.17 C441.11,366.45 447.34,350.83 450.85,343.93 C461.96,323.10 474.08,303.94 477.06,298.67 C479.14,295.24 480.77,283.55 483.46,279.50 C484.29,278.25 484.82,277.38 485.06,276.89 C485.27,276.44 485.59,275.58 486.00,274.33" fill="none" stroke="rgb(255, 255, 255)" stroke-width="69.70" stroke-opacity="1.00" stroke-linejoin="round"/>
<path d="M484.00,281.00 C485.23,280.93 485.99,280.30 486.86,278.37 C487.71,276.48 488.85,275.26 489.00,274.72 C489.10,274.38 489.17,273.47 489.22,272.00 C490.27,270.97 490.83,270.28 490.89,269.94 C491.01,269.16 485.67,265.24 484.00,264.00 C484.00,264.00 488.00,268.00 488.00,268.00 C488.00,268.00 484.28,266.00 484.28,266.00 C486.01,268.98 488.10,269.00 489.00,268.44 C489.00,268.44 488.28,266.39 488.28,266.39 C487.13,268.49 486.76,270.27 487.72,271.00 C488.00,271.21 488.70,271.51 489.83,271.89 C490.81,271.05 491.42,269.98 490.94,269.28 C490.79,269.04 490.30,268.62 489.50,268.00 C489.50,268.00 488.39,268.50 488.39,268.50 C489.93,269.60 491.58,268.58 492.33,267.33 C492.33,267.33 490.89,265.11 490.89,265.11 C490.23,265.28 489.29,265.98 489.22,266.89 C489.12,268.76 490.26,270.57 491.94,271.15 C493.66,271.72 494.58,271.48 495.61,270.44 C495.61,270.44 494.00,266.11 494.00,266.11 C495.70,266.61 496.59,266.91 496.67,267.00 C496.74,267.09 496.11,267.11 494.78,267.06 C494.78,267.06 494.00,268.44 494.00,268.44 C494.74,268.99 495.26,269.18 495.56,269.00 C497.06,268.12 496.55,264.21 495.00,262.61 C494.70,262.30 496.98,265.75 497.28,265.17 C497.33,265.09 496.92,264.44 496.06,263.22" fill="none" stroke="rgb(255, 255, 255)" stroke-width="69.70" stroke-opacity="1.00" stroke-linejoin="round"/>
<path d="M486.50,255.00 C485.89,256.06 485.69,256.80 485.89,257.22 C486.04,257.54 489.75,260.32 490.89,261.44 C490.89,261.44 487.22,259.11 487.22,259.11 C487.22,259.11 494.00,265.00 494.00,265.00 C494.00,265.00 497.00,267.00 497.00,267.00 C497.00,267.00 495.00,264.00 495.00,264.00 C495.00,264.00 492.00,265.00 492.00,265.00 C492.00,265.00 496.78,268.00 496.78,268.00 C496.78,268.00 494.06,266.00 494.06,266.00 C494.06,266.00 496.94,266.06 496.94,266.06 C496.94,266.06 491.00,264.00 491.00,264.00 C491.00,264.00 494.72,265.11 494.72,265.11 C493.62,266.01 492.68,266.00 490.44,265.06 C490.21,264.96 490.14,264.98 490.22,265.11 C490.22,265.11 497.00,269.00 497.00,269.00 C494.82,267.52 492.54,268.10 492.17,268.61 C492.17,268.61 493.00,270.00 493.00,270.00 C490.34,269.77 488.99,269.42 487.62,268.26 C481.31,262.85 471.08,253.89 471.06,253.72 C471.04,253.41 473.00,254.14 474.78,255.00" fill="none" stroke="rgb(255, 255, 255)" stroke-width="69.70" stroke-opacity="1.00" stroke-linejoin="round"/>
<path d="M393.00,90.50 C392.75,88.85 392.06,84.29 392.00,83.39 C391.96,82.83 392.02,78.36 391.83,77.50 C391.70,76.88 390.45,73.29 390.00,72.00 C391.23,71.66 391.90,71.58 392.00,71.78 C392.41,72.60 391.18,73.47 391.11,74.39 C391.05,75.10 392.15,76.79 391.50,76.50 C391.32,76.42 390.49,75.59 389.00,74.00 C396.56,87.89 410.74,114.63 417.36,127.48 C423.25,138.39 425.20,142.26 429.00,151.72 C429.31,152.50 447.58,194.29 452.44,202.69 C456.29,209.20 480.51,244.23 481.89,247.00 C481.99,247.21 482.03,247.54 482.00,248.00 C480.30,248.17 476.44,245.44 473.72,242.68 C470.54,239.39 445.51,205.97 435.71,192.05 C426.48,178.69 407.89,150.15 402.94,143.83 C402.32,144.72 403.44,150.48 404.12,153.36 C406.72,164.18 437.59,260.78 441.61,276.99 C442.91,282.43 444.41,288.71 444.61,289.56 C443.28,287.65 391.60,182.60 389.44,178.36 C387.56,174.78 385.09,170.07 384.50,168.94 C384.38,172.10 397.12,208.17 402.75,223.90 C408.04,238.42 417.05,262.98 422.29,277.85 C429.78,300.15 431.48,311.59 431.39,314.56 C427.62,307.54 423.54,298.02 421.17,292.45 C412.50,270.27 394.85,220.94 391.89,212.33 C391.31,214.68 397.85,255.23 400.26,269.57 C403.12,286.44 410.04,328.34 410.71,335.17 C411.84,348.94 412.54,364.84 412.38,367.92 C412.29,369.57 411.65,371.08 410.22,373.56 C407.94,372.64 406.86,371.92 405.95,370.51 C402.88,365.72 395.73,351.95 392.70,345.26 C383.42,323.92 366.35,275.09 362.56,264.17 C365.66,278.04 372.40,307.97 376.03,324.02 C379.54,339.81 385.09,368.08 386.80,382.27 C388.70,401.47 387.68,407.34 386.56,411.28 C383.64,411.09 382.18,410.58 380.78,408.99 C375.61,403.16 369.63,393.75 365.24,384.77 C355.69,364.15 339.59,324.72 337.00,318.67 C338.56,329.59 344.22,360.86 346.67,377.24 C348.30,389.32 349.31,399.02 349.07,407.19 C348.88,412.09 348.18,415.73 347.17,417.94 C344.89,417.79 343.81,417.43 342.90,416.28 C339.62,412.07 333.88,397.69 331.75,389.86 C330.04,383.53 327.66,371.49 326.64,361.98 C325.87,353.57 324.26,333.35 324.29,329.04 C324.31,326.88 324.99,321.21 325.50,320.17 C326.23,324.56 326.24,341.76 325.49,351.19 C324.79,359.20 323.48,368.29 321.29,378.89 C319.76,385.87 315.55,398.88 313.01,403.90 C311.56,406.71 308.14,411.60 305.60,414.64 C303.28,417.34 297.18,420.91 294.74,420.91 C293.53,420.86 291.31,419.63 289.67,418.19 C288.33,417.01 285.64,414.04 285.39,413.89 C284.44,413.35 279.03,415.25 274.02,417.65 C268.30,420.49 251.86,430.43 248.27,432.44 C246.14,433.63 239.26,437.10 238.00,437.00 C237.17,436.94 233.78,436.53 232.83,437.06 C232.05,437.50 228.54,441.90 228.00,442.39 C227.03,443.27 224.61,444.42 223.06,445.00" fill="none" stroke="rgb(255, 255, 255)" stroke-width="69.70" stroke-opacity="1.00" stroke-linejoin="round"/>
<path d="M196.50,466.00 C195.60,466.20 194.56,466.72 191.47,468.51 C188.89,469.99 184.11,471.87 183.33,471.89 C182.94,471.90 182.17,471.67 181.00,471.20" fill="none" stroke="rgb(255, 255, 255)" stroke-width="69.70" stroke-opacity="1.00" stroke-linejoin="round"/>
<path d="M331.50,231.50 C329.11,228.61 319.72,217.13 315.03,209.67 C300.61,186.43 294.54,178.84 281.12,159.33 C279.98,157.69 277.78,154.79 276.45,153.21 C275.19,151.71 274.24,151.37 273.17,151.61 C273.75,156.84 277.42,171.73 279.49,180.02 C282.28,191.27 281.91,193.00 281.33,193.94 C278.51,192.68 277.11,191.90 275.66,190.64 C272.47,187.84 268.40,183.15 265.71,179.38 C261.03,172.76 256.36,163.08 253.04,155.46 C251.52,151.84 244.51,133.43 241.51,125.62 C238.50,118.17 230.86,105.04 228.14,101.31 C220.53,90.79 216.87,83.87 213.55,80.00 C212.29,78.52 205.14,70.75 203.00,69.00" fill="none" stroke="rgb(255, 255, 255)" stroke-width="69.70" stroke-opacity="1.00" stroke-linejoin="round"/>
<path d="M230.00,84.00 C228.60,84.00 224.47,84.01 223.76,83.89 C222.81,83.73 220.23,82.77 218.11,82.33 C221.96,79.60 226.86,76.67 229.61,76.11 C232.89,75.56 237.86,74.71 242.50,75.00 C247.23,75.32 256.76,76.98 268.32,77.11 C281.32,77.09 291.60,76.21 295.60,76.20 C307.23,76.27 313.57,77.20 324.00,77.00 C327.04,76.94 330.96,78.04 335.30,78.05 C343.04,78.00 348.31,78.06 349.28,77.94 C349.86,77.87 354.16,77.07 354.94,77.00 C355.96,76.90 358.82,77.05 359.17,77.00 C360.13,76.85 362.94,76.17 365.83,75.89 C365.83,75.89 366.00,74.89 366.00,74.89 C364.14,73.41 353.34,72.84 341.13,72.86 C335.34,72.94 330.66,74.04 329.28,74.00 C331.11,74.94 334.74,74.80 338.36,74.05 C342.29,73.23 350.81,71.43 355.40,70.46 C361.40,69.26 366.61,68.58 369.22,69.11 C373.39,69.99 376.35,70.13 378.28,71.22 C379.67,72.04 382.22,76.40 383.34,79.29 C389.44,95.29 392.17,110.22 392.53,113.66 C392.61,114.47 392.91,117.96 393.00,119.00" fill="none" stroke="rgb(255, 255, 255)" stroke-width="69.70" stroke-opacity="1.00" stroke-linejoin="round"/>
<path d="M374.00,141.50 C374.00,141.50 328.36,105.17 328.36,105.17 C328.64,107.63 331.65,114.21 333.29,116.97 C335.05,119.88 338.99,124.45 341.50,126.67 C342.00,127.11 342.50,127.56 343.00,128.00" fill="none" stroke="rgb(255, 255, 255)" stroke-width="69.70" stroke-opacity="1.00" stroke-linejoin="round"/>
<path d="M372.90,140.00 C372.24,140.19 368.45,137.70 362.92,133.54 C353.08,126.16 345.43,121.34 339.78,119.22 C336.07,117.86 331.64,117.21 331.50,118.44 C331.39,120.18 335.43,128.91 337.22,131.72 C338.82,134.20 343.96,140.27 345.94,142.28 C349.57,145.92 356.12,150.15 357.11,150.78 C356.03,149.59 317.76,125.02 309.23,120.82 C301.52,117.04 294.48,114.52 292.89,114.39 C290.87,114.28 288.53,115.46 287.83,117.11 C287.34,118.39 288.60,125.39 289.64,128.24 C291.50,133.19 301.60,148.11 305.99,152.22 C310.85,156.70 322.35,164.35 330.22,167.56 C332.17,168.33 336.58,169.81 337.28,169.72 C337.64,169.67 338.21,169.35 339.00,168.78 C334.47,161.97 308.77,127.69 304.33,124.92 C303.30,124.34 301.86,125.35 300.99,127.17 C300.76,127.66 300.43,128.60 300.00,130.00" fill="none" stroke="rgb(255, 255, 255)" stroke-width="69.70" stroke-opacity="1.00" stroke-linejoin="round"/>
<path d="M100.00,137.00 C100.00,137.00 100.14,136.33 100.14,136.33 C100.14,136.33 101.00,136.00 101.00,136.00 C100.98,136.39 100.75,139.77 99.29,144.17 C96.76,151.78 92.40,164.82 92.33,165.00 C92.10,165.58 91.73,166.44 91.22,167.56 C91.11,167.80 91.04,167.95 91.00,168.00" fill="none" stroke="rgb(255, 255, 255)" stroke-width="21.50" stroke-opacity="1.00" stroke-linejoin="round"/>
<path d="M102.00,139.00 C102.00,139.00 102.00,138.46 102.00,138.46 C102.00,138.46 102.99,138.38 102.99,138.38 C102.17,141.02 101.33,143.30 99.57,147.63 C96.37,155.39 88.14,170.81 83.93,178.29 C70.77,200.96 67.60,205.91 55.18,229.34 C46.12,246.57 36.95,266.91 36.83,267.94 C36.83,267.94 35.83,269.72 35.83,269.72 C35.83,269.72 33.06,270.94 33.06,270.94 C34.39,271.03 35.33,271.37 36.23,272.27 C38.01,274.10 41.23,278.99 42.78,281.39 C44.59,284.16 51.92,307.82 52.17,308.33 C52.34,308.70 55.64,314.45 58.00,320.02 C61.18,327.51 65.72,334.02 72.61,342.50 C74.54,344.86 79.36,350.33 80.11,351.22 C82.54,354.11 89.77,367.79 93.08,373.54 C95.64,378.06 99.12,388.41 99.11,388.78 C99.11,388.78 100.00,390.00 100.00,390.00 C100.00,390.00 100.00,392.89 100.00,392.89 C100.00,392.89 101.00,394.00 101.00,394.00 C101.00,394.00 102.00,394.00 102.00,394.00 C102.00,394.00 103.00,394.06 103.00,394.06 C103.00,394.06 103.00,396.00 103.00,396.00 C103.03,392.23 101.86,377.77 101.78,377.06 C101.71,376.53 98.35,356.26 97.22,348.33 C96.12,340.71 95.07,327.60 95.08,325.76 C95.04,317.48 95.01,300.67 95.00,292.14 C95.01,287.28 95.99,278.01 96.04,268.52 C96.00,251.02 95.96,209.63 96.63,204.42 C98.15,189.64 100.38,168.12 99.89,160.11 C96.33,172.65 90.18,201.37 87.08,216.49 C85.00,228.17 83.67,239.21 82.97,245.24 C82.26,251.69 83.42,287.89 84.00,302.50 C84.94,270.72 86.07,216.08 85.86,211.30 C85.50,203.76 84.64,200.08 84.06,198.22 C82.95,199.00 81.82,208.98 81.39,217.85 C80.86,233.09 80.13,265.45 80.41,276.88 C80.73,284.91 81.49,300.26 81.93,307.58 C82.89,320.12 88.09,344.87 89.94,353.11 C89.83,344.43 77.46,243.37 75.72,232.00 C74.79,226.45 74.57,225.75 74.00,224.72 C72.19,231.26 69.22,265.63 68.39,281.31 C68.09,291.93 68.35,298.19 69.00,304.50 C69.00,304.50 68.78,223.28 68.78,223.28 C67.49,230.31 64.71,246.64 63.57,254.93 C62.68,262.86 60.98,279.37 61.07,283.70 C61.14,286.59 61.71,293.44 62.00,296.72 C61.84,288.75 60.13,275.38 58.53,267.27 C56.76,258.34 53.72,248.72 51.61,244.67 C51.09,244.96 50.88,245.86 51.03,248.11 C51.47,254.63 53.62,267.09 56.06,276.41 C58.50,285.49 71.12,314.86 73.00,320.67 C73.00,320.67 54.00,280.50 54.00,280.50 C54.28,284.79 57.75,293.29 62.90,305.02 C75.57,333.51 78.82,340.04 80.94,342.72" fill="none" stroke="rgb(255, 255, 255)" stroke-width="21.50" stroke-opacity="1.00" stroke-linejoin="round"/>
<path d="M178.00,482.00 C175.56,482.01 174.17,482.22 172.91,482.90 C170.90,484.00 167.60,485.80 165.00,486.00 C160.72,486.30 156.48,489.11 155.39,489.17 C155.39,489.17 152.00,491.00 152.00,491.00" fill="none" stroke="rgb(255, 255, 255)" stroke-width="21.50" stroke-opacity="1.00" stroke-linejoin="round"/>
</g>
</svg>
